<mxfile host="app.diagrams.net" modified="2023-03-07T17:37:52.922Z" agent="5.0 (Windows)" etag="IrRaJZfyFWJghu4dqjWT" version="21.0.2" type="github">
  <diagram name="Page-1" id="rXJJDhTdSwJLCnQeVf4j">
    <mxGraphModel dx="2074" dy="1114" grid="1" gridSize="10" guides="1" tooltips="1" connect="1" arrows="1" fold="1" page="1" pageScale="1" pageWidth="827" pageHeight="1169" math="0" shadow="0">
      <root>
        <mxCell id="0" />
        <mxCell id="1" parent="0" />
        <mxCell id="VnbGukm3Uo5BTcN1WrK5-1" value="" style="ellipse;whiteSpace=wrap;html=1;" vertex="1" parent="1">
          <mxGeometry x="286" y="20" width="256" height="180" as="geometry" />
        </mxCell>
        <mxCell id="VnbGukm3Uo5BTcN1WrK5-2" value="" style="shape=flexArrow;endArrow=classic;html=1;rounded=0;" edge="1" parent="1" source="VnbGukm3Uo5BTcN1WrK5-1" target="VnbGukm3Uo5BTcN1WrK5-3">
          <mxGeometry width="50" height="50" relative="1" as="geometry">
            <mxPoint x="390" y="310" as="sourcePoint" />
            <mxPoint x="420" y="370" as="targetPoint" />
          </mxGeometry>
        </mxCell>
        <mxCell id="VnbGukm3Uo5BTcN1WrK5-3" value="sectono 1" style="ellipse;whiteSpace=wrap;html=1;" vertex="1" parent="1">
          <mxGeometry x="120" y="310" width="190" height="130" as="geometry" />
        </mxCell>
        <mxCell id="VnbGukm3Uo5BTcN1WrK5-4" value="" style="shape=flexArrow;endArrow=classic;html=1;rounded=0;" edge="1" parent="1" source="VnbGukm3Uo5BTcN1WrK5-1" target="VnbGukm3Uo5BTcN1WrK5-5">
          <mxGeometry width="50" height="50" relative="1" as="geometry">
            <mxPoint x="420" y="210" as="sourcePoint" />
            <mxPoint x="600" y="380" as="targetPoint" />
          </mxGeometry>
        </mxCell>
        <mxCell id="VnbGukm3Uo5BTcN1WrK5-5" value="section 2" style="ellipse;whiteSpace=wrap;html=1;" vertex="1" parent="1">
          <mxGeometry x="560" y="320" width="178" height="125" as="geometry" />
        </mxCell>
      </root>
    </mxGraphModel>
  </diagram>
</mxfile>
